<svg xmlns="http://www.w3.org/2000/svg" xmlns:xlink="http://www.w3.org/1999/xlink" width="20.000000" height="20.000000" viewBox="0 0 20 20" fill="none">
	<desc>
			Created with Pixso.
	</desc>
	<defs>
		<clipPath id="clip60_730">
			<rect id="fi:user" width="20.000000" height="20.000000" fill="white" fill-opacity="0"/>
		</clipPath>
	</defs>
	<rect id="fi:user" width="20.000000" height="20.000000" fill="#FFFFFF" fill-opacity="0"/>
	<g clip-path="url(#clip60_730)">
		<path id="Vector" d="M16.6667 17.5L16.6667 15.8335C16.6667 14.9492 16.3156 14.1016 15.6904 13.4761C15.0653 12.8511 14.2174 12.5 13.3334 12.5L6.66675 12.5C5.78259 12.5 4.93481 12.8511 4.30969 13.4761C3.68457 14.1016 3.33337 14.9492 3.33337 15.8335L3.33337 17.5" stroke="#322E38" stroke-opacity="1.000000" stroke-width="2.000000" stroke-linejoin="round" stroke-linecap="round"/>
		<path id="Vector" d="M10 9.1665C8.15906 9.1665 6.66663 7.67432 6.66663 5.8335C6.66663 3.99219 8.15906 2.5 10 2.5C11.8409 2.5 13.3333 3.99219 13.3333 5.8335C13.3333 7.67432 11.8409 9.1665 10 9.1665Z" stroke="#322E38" stroke-opacity="1.000000" stroke-width="2.000000" stroke-linejoin="round"/>
	</g>
</svg>