<svg xmlns="http://www.w3.org/2000/svg" xmlns:xlink="http://www.w3.org/1999/xlink" width="20.000000" height="20.000000" viewBox="0 0 20 20" fill="none">
	<desc>
			Created with Pixso.
	</desc>
	<defs/>
	<path id="Vector 184" d="M7.33325 17.3999L7.33325 14.5C7.33325 10.8999 12.6667 10.8999 12.6667 14.5L12.6667 19L16 19C17.1045 19 18 18.1045 18 17L18 8.27295C18 7.97949 17.8713 7.70117 17.6482 7.51123L11.2964 2.104C10.5493 1.46777 9.45068 1.46777 8.70361 2.104L2.35181 7.51123C2.12866 7.70117 2 7.97949 2 8.27295L2 17C2 18.1045 2.89551 19 4 19L7.33325 19L7.33325 17.3999ZM5.7334 17.3999L4 17.3999Q3.91724 17.3999 3.84644 17.3706Q3.77563 17.3413 3.71704 17.2827Q3.65869 17.2241 3.62939 17.1533Q3.6001 17.0825 3.6001 17L3.6001 8.5498L9.74072 3.32227Q9.79663 3.27441 9.86157 3.25049Q9.92651 3.22656 10 3.22656Q10.0735 3.22656 10.1384 3.25049Q10.2034 3.27441 10.2593 3.32227L16.3999 8.5498L16.3999 17Q16.3999 17.083 16.3706 17.1533Q16.3413 17.2241 16.283 17.2827Q16.2244 17.3413 16.1536 17.3706Q16.0828 17.3999 16 17.3999L14.2666 17.3999L14.2666 14.5Q14.2666 13.5615 13.9375 12.7583Q13.9221 12.7212 13.9062 12.6841Q13.7148 12.2412 13.4338 11.8652Q13.1997 11.5522 12.9036 11.2856Q12.709 11.1104 12.4954 10.9624Q12.0493 10.6533 11.521 10.4634Q11.2517 10.3662 10.9744 10.3052Q10.4988 10.2002 10 10.2002Q9.50122 10.2002 9.02563 10.3052Q8.74829 10.3662 8.479 10.4634Q7.95068 10.6533 7.50464 10.9624Q7.29102 11.1104 7.09644 11.2856Q6.80029 11.5522 6.56616 11.8652Q6.28516 12.2412 6.09375 12.6841Q6.07788 12.7212 6.0625 12.7583Q5.7334 13.5615 5.7334 14.5L5.7334 17.3999Z" fill="#241B28" fill-opacity="1.000000" fill-rule="evenodd"/>
</svg>