<svg xmlns="http://www.w3.org/2000/svg" xmlns:xlink="http://www.w3.org/1999/xlink" width="24.000000" height="24.000000" viewBox="0 0 24 24" fill="none">
	<desc>
			Created with Pixso.
	</desc>
	<defs>
		<clipPath id="clip109_3779">
			<rect id="u:location-point" width="24.000000" height="24.000000" fill="white" fill-opacity="0"/>
		</clipPath>
	</defs>
	<rect id="u:location-point" width="24.000000" height="24.000000" fill="#FFFFFF" fill-opacity="0"/>
	<g clip-path="url(#clip109_3779)">
		<path id="Vector" d="M18 4.47998C16.4087 2.88867 14.2504 1.99463 12 1.99463C9.74954 1.99463 7.59128 2.88867 6 4.47998C4.40869 6.07129 3.51471 8.22949 3.51471 10.48C3.51471 12.7305 4.40869 14.8887 6 16.48L11.27 21.7598C11.3629 21.8535 11.4735 21.9282 11.5954 21.979C11.7173 22.0298 11.848 22.0557 11.98 22.0557C12.112 22.0557 12.2427 22.0298 12.3646 21.979C12.4864 21.9282 12.597 21.8535 12.69 21.7598L18 16.4297C19.5847 14.8452 20.4749 12.6958 20.4749 10.4551C20.4749 8.21387 19.5847 6.06445 18 4.47998ZM16.57 15L12 19.5898L7.42999 15C6.52713 14.0962 5.91248 12.9453 5.6637 11.6924C5.41492 10.4395 5.54318 9.14062 6.03229 7.96045C6.52142 6.78076 7.3494 5.77197 8.41162 5.0625C9.47385 4.35303 10.7226 3.97412 12 3.97412C13.2774 3.97412 14.5262 4.35303 15.5883 5.0625C16.6506 5.77197 17.4786 6.78076 17.9677 7.96045C18.4568 9.14062 18.5851 10.4395 18.3363 11.6924C18.0875 12.9453 17.4728 14.0962 16.57 15ZM9 7.40967C8.19272 8.21973 7.73938 9.31641 7.73938 10.46C7.73938 11.6035 8.19272 12.7002 9 13.5098C9.59976 14.1108 10.3636 14.521 11.1956 14.6895C12.0277 14.8574 12.8909 14.7764 13.6771 14.4561C14.4632 14.1357 15.1372 13.5903 15.6145 12.8882C16.0918 12.186 16.3511 11.3589 16.36 10.5098C16.3645 9.94287 16.2553 9.38135 16.0389 8.85742C15.8225 8.3335 15.5032 7.8584 15.1 7.45996C14.7037 7.05469 14.2311 6.73145 13.7094 6.50928C13.1877 6.28711 12.6273 6.17041 12.0604 6.16602C11.4934 6.16113 10.9312 6.26904 10.406 6.48242C9.88074 6.6958 9.40292 7.01123 9 7.40967ZM13.69 12.0898C13.311 12.4746 12.8102 12.7158 12.2731 12.772C11.736 12.8286 11.196 12.6968 10.7455 12.3989C10.295 12.1011 9.96179 11.6562 9.80301 11.1401C9.6442 10.624 9.66965 10.0684 9.87494 9.56885C10.0803 9.06982 10.4527 8.65674 10.9286 8.40186C11.4044 8.14648 11.9543 8.06445 12.4839 8.16943C13.0136 8.2749 13.4903 8.56055 13.8325 8.97852C14.1747 9.396 14.3611 9.91992 14.36 10.46C14.3454 11.0771 14.0865 11.6636 13.64 12.0898L13.69 12.0898Z" fill="#241B28" fill-opacity="1.000000" fill-rule="nonzero"/>
	</g>
</svg>