<svg xmlns="http://www.w3.org/2000/svg" xmlns:xlink="http://www.w3.org/1999/xlink" width="20.000000" height="20.000000" viewBox="0 0 20 20" fill="none">
	<desc>
			Created with Pixso.
	</desc>
	<defs>
		<clipPath id="clip60_693">
			<rect id="file-document" width="20.000000" height="20.000000" fill="white" fill-opacity="0"/>
		</clipPath>
	</defs>
	<g clip-path="url(#clip60_693)">
		<path id="file-document" d="M2.5 4.1665C2.5 2.78564 3.61926 1.6665 5 1.6665L11.6666 1.6665C14.8883 1.6665 17.5 4.27832 17.5 7.5L17.5 15.833C17.5 17.2139 16.3807 18.333 15 18.333L5 18.333C3.61926 18.333 2.5 17.2139 2.5 15.833L2.5 4.1665ZM10.8334 3.33301L5 3.33301C4.53979 3.33301 4.16663 3.70605 4.16663 4.1665L4.16663 15.833C4.16663 16.2935 4.53979 16.6665 5 16.6665L15 16.6665C15.4602 16.6665 15.8334 16.2935 15.8334 15.833L15.8334 7.5L10.8334 7.5L10.8334 3.33301ZM15.4866 5.83301C14.951 4.60742 13.8428 3.68896 12.5 3.4165L12.5 5.83301L15.4866 5.83301ZM5.83337 8.33301L9.16663 8.33301L9.16663 6.6665L5.83337 6.6665L5.83337 8.33301ZM5.83337 11.6665L14.1666 11.6665L14.1666 10L5.83337 10L5.83337 11.6665ZM14.1666 15L5.83337 15L5.83337 13.333L14.1666 13.333L14.1666 15Z" fill="#322E38" fill-opacity="1.000000" fill-rule="evenodd"/>
	</g>
</svg>