<svg xmlns="http://www.w3.org/2000/svg" xmlns:xlink="http://www.w3.org/1999/xlink" width="24.000000" height="24.000000" viewBox="0 0 24 24" fill="none">
	<desc>
			Created with Pixso.
	</desc>
	<defs/>
	<path id="Vector" d="M5.04999 12.29C4.73999 12.6201 4.44 13.27 4.37994 13.7202L4.00995 16.9604C3.87994 18.1304 4.71997 18.9302 5.87994 18.73L9.09998 18.1802C9.54999 18.1001 10.18 17.77 10.49 17.4302L18.7 8.74023C20.12 7.24023 20.7599 5.53027 18.55 3.44043C16.35 1.37012 14.68 2.1001 13.2599 3.6001L5.04999 12.29Z" stroke="#241B28" stroke-opacity="1.000000" stroke-width="1.600000" stroke-linejoin="round"/>
	<path id="Vector" d="M11.89 5.0498C12.32 7.80957 14.56 9.91992 17.34 10.1997" stroke="#241B28" stroke-opacity="1.000000" stroke-width="1.600000" stroke-linejoin="round" stroke-linecap="round"/>
	<g opacity="0.000000">
		<path id="Vector" d="M0 0L24 0L24 24L0 24L0 0ZM2 22L2 2L22 2L22 22L2 22Z" fill="#241B28" fill-opacity="1.000000" fill-rule="evenodd"/>
	</g>
</svg>