<svg xmlns="http://www.w3.org/2000/svg" width="20" height="20" viewBox="0 0 20 20" fill="none">
<path d="M13.3237 10.6384C14.2055 9.94458 14.8492 8.99317 15.1651 7.91651C15.4811 6.83985 15.4536 5.69148 15.0865 4.63117C14.7194 3.57087 14.0309 2.65135 13.1168 2.00054C12.2028 1.34973 11.1087 1 9.98659 1C8.86453 1 7.77037 1.34973 6.85633 2.00054C5.94229 2.65135 5.25383 3.57087 4.88672 4.63117C4.51962 5.69148 4.49212 6.83985 4.80806 7.91651C5.124 8.99317 5.76767 9.94458 6.64952 10.6384C5.13846 11.2438 3.82001 12.2479 2.83472 13.5436C1.84943 14.8394 1.23425 16.3783 1.05474 17.9961C1.04175 18.1143 1.05215 18.2338 1.08535 18.3479C1.11855 18.462 1.17389 18.5684 1.24823 18.6612C1.39836 18.8484 1.61672 18.9683 1.85528 18.9946C2.09384 19.0208 2.33305 18.9512 2.52029 18.8011C2.70753 18.651 2.82746 18.4326 2.8537 18.194C3.05122 16.4357 3.88963 14.8118 5.20874 13.6326C6.52786 12.4533 8.23521 11.8014 10.0046 11.8014C11.774 11.8014 13.4813 12.4533 14.8004 13.6326C16.1195 14.8118 16.9579 16.4357 17.1555 18.194C17.1799 18.4151 17.2854 18.6192 17.4515 18.767C17.6176 18.9149 17.8326 18.9959 18.0549 18.9946H18.1539C18.3897 18.9674 18.6052 18.8482 18.7534 18.6629C18.9017 18.4776 18.9707 18.2411 18.9454 18.0051C18.7651 16.3827 18.1466 14.8399 17.1562 13.5421C16.1659 12.2443 14.841 11.2406 13.3237 10.6384ZM9.98659 9.99976C9.27499 9.99976 8.57937 9.78874 7.98769 9.3934C7.39602 8.99805 6.93486 8.43613 6.66254 7.7787C6.39022 7.12126 6.31897 6.39784 6.4578 5.69991C6.59663 5.00198 6.93929 4.36089 7.44247 3.85771C7.94565 3.35454 8.58674 3.01187 9.28467 2.87304C9.9826 2.73421 10.706 2.80546 11.3635 3.07778C12.0209 3.3501 12.5828 3.81126 12.9782 4.40293C13.3735 4.99461 13.5845 5.69023 13.5845 6.40183C13.5845 7.35606 13.2055 8.27121 12.5307 8.94595C11.856 9.62069 10.9408 9.99976 9.98659 9.99976Z" fill="#000000" stroke="#4D4D4D" stroke-width="0.0"/>
</svg>