<svg xmlns="http://www.w3.org/2000/svg" xmlns:xlink="http://www.w3.org/1999/xlink" width="20.00" height="20.00" viewBox="0 0 16 17.373" fill="none">
	<desc>
			Created with Pixso.
	</desc>
	<defs/>
	<path id="Vector 184" d="M5.33337 17.373C5.33337 15.4731 5.33337 14.7729 5.33337 12.873C5.33337 9.27295 10.6666 9.27295 10.6666 12.873L10.6666 17.373L14 17.373C15.1046 17.373 16 16.4775 16 15.373L16 6.646C16 6.35254 15.8715 6.07422 15.6482 5.88428L9.29651 0.477051C8.54919 -0.15918 7.45081 -0.15918 6.70349 0.477051L0.351807 5.88428C0.12854 6.07422 0 6.35254 0 6.646L0 15.373C0 16.4775 0.895386 17.373 2 17.373L5.33337 17.373Z" fill="#BA06F9" fill-opacity="1.000000" fill-rule="evenodd"/>
</svg>