<svg xmlns="http://www.w3.org/2000/svg" xmlns:xlink="http://www.w3.org/1999/xlink" width="20.000000" height="20.000000" viewBox="0 0 20 20" fill="none">
	<desc>
			Created with Pixso.
	</desc>
	<defs>
		<clipPath id="clip60_705">
			<rect id="file-document" width="20.000000" height="20.000000" fill="white" fill-opacity="0"/>
		</clipPath>
	</defs>
	<g clip-path="url(#clip60_705)">
		<path id="file-document" d="M2.5 4.1665C2.5 2.78564 3.61914 1.6665 5 1.6665L11.667 1.6665C14.8887 1.6665 17.5 4.27832 17.5 7.5L17.5 15.833C17.5 17.2139 16.3809 18.333 15 18.333L5 18.333C3.61914 18.333 2.5 17.2139 2.5 15.833L2.5 4.1665ZM10.833 3.33301L5 3.33301C4.54004 3.33301 4.16699 3.70605 4.16699 4.1665L4.16699 15.833C4.16699 16.2935 4.54004 16.6665 5 16.6665L15 16.6665C15.46 16.6665 15.833 16.2935 15.833 15.833L15.833 7.5L10.833 7.5L10.833 3.33301ZM15.4863 5.83301C14.9512 4.60742 13.8428 3.68896 12.5 3.4165L12.5 5.83301L15.4863 5.83301ZM5.83301 8.33301L9.16699 8.33301L9.16699 6.6665L5.83301 6.6665L5.83301 8.33301ZM5.83301 11.6665L14.167 11.6665L14.167 10L5.83301 10L5.83301 11.6665ZM14.167 15L5.83301 15L5.83301 13.333L14.167 13.333L14.167 15Z" fill="#BA06F9" fill-opacity="1.000000" fill-rule="evenodd"/>
	</g>
</svg>