<svg xmlns="http://www.w3.org/2000/svg" xmlns:xlink="http://www.w3.org/1999/xlink" width="40.000000" height="32.000000" viewBox="0 0 40 32" fill="none">
	<desc>
			Created with Pixso.
	</desc>
	<defs/>
	<path id="Vector" d="M32.7273 5.33325L32.7273 1.77783L36.3636 1.77783L36.3636 5.33325L40 5.33325L40 8.88892L36.3636 8.88892L36.3636 12.4443L32.7273 12.4443L32.7273 8.88892L29.0909 8.88892L29.0909 5.33325L32.7273 5.33325ZM8.73157 5.05835C8.86035 4.8833 9.00342 4.66895 9.18585 4.37988C9.28809 4.21802 9.66107 3.61475 9.72205 3.51709C11.2293 1.10645 12.325 0 14.3006 0L23.4545 0C24.5591 0 25.4545 0.895508 25.4545 2L25.4545 3.55566L14.3006 3.55566C14.1429 3.55566 13.647 4.0564 12.8246 5.37183C12.7718 5.45605 12.3932 6.06836 12.2804 6.24731C12.0568 6.60156 11.871 6.87988 11.6835 7.13477C10.8685 8.24243 10.054 8.88892 8.84607 8.88892L5.45453 8.88892C4.45038 8.88892 3.63635 9.68481 3.63635 10.6667L3.63635 26.6667C3.63635 27.6484 4.45038 28.4443 5.45453 28.4443L34.5455 28.4443C35.5496 28.4443 36.3636 27.6484 36.3636 26.6667L36.3636 16L40 16L40 26.6667C40 29.6123 37.5579 32 34.5455 32L5.45453 32C2.44208 32 0 29.6123 0 26.6667L0 10.6667C0 7.72119 2.44208 5.33325 5.45453 5.33325L8.5119 5.33325C8.57239 5.26562 8.64661 5.17383 8.73157 5.05835ZM20 26.6667C14.9792 26.6667 10.9091 22.687 10.9091 17.7778C10.9091 12.8687 14.9792 8.88892 20 8.88892C25.0208 8.88892 29.0909 12.8687 29.0909 17.7778C29.0909 22.687 25.0208 26.6667 20 26.6667ZM20 23.1111C23.0125 23.1111 25.4545 20.7234 25.4545 17.7778C25.4545 14.8323 23.0125 12.4443 20 12.4443C16.9875 12.4443 14.5455 14.8323 14.5455 17.7778C14.5455 20.7234 16.9875 23.1111 20 23.1111Z" fill="#1F1F1F" fill-opacity="1.000000" fill-rule="evenodd"/>
</svg>